<?xml version="1.0" encoding="utf-8"?>
<!-- Generator: Adobe Illustrator 24.1.2, SVG Export Plug-In . SVG Version: 6.00 Build 0)  -->
<svg version="1.1" id="Layer_1" xmlns="http://www.w3.org/2000/svg" xmlns:xlink="http://www.w3.org/1999/xlink" x="0px" y="0px"
	 viewBox="0 0 665.4 562.9" style="enable-background:new 0 0 665.4 562.9;" xml:space="preserve">
<style type="text/css">
	.st0{opacity:0.4;enable-background:new    ;}
	.st1{stroke:#FF0000;stroke-width:2;stroke-miterlimit:10;}
	.st2{fill:none;stroke:#FFFFFF;stroke-width:1.0267;stroke-miterlimit:10;}
	
		.st3{opacity:0.36;fill:none;stroke:#FFFFFF;stroke-width:1.0267;stroke-linecap:round;stroke-miterlimit:10;stroke-dasharray:12.3207;enable-background:new    ;}
	.st4{fill:none;stroke:#FFFFFF;stroke-width:1.0267;stroke-linecap:round;stroke-miterlimit:10;}
	.st5{fill:#FFFFFF;}
	.st6{fill-opacity:0.4;stroke:#FF0000;stroke-width:2;stroke-miterlimit:10;}
	.st7{fill:#FF0000;}
</style>
<g>
	<polygon class="st0" points="23.2,541.2 23.2,99.5 75.7,45.8 610.9,45.8 642.7,72.2 642.7,488.6 590,541.2 	"/>
	<polyline class="st1" points="248.6,54.3 230.6,24.7 116.2,24.7 100.5,54.3 	"/>
	<polygon class="st1" points="255.1,54.1 240.2,30 233.8,30 249.6,54.3 	"/>
	<polygon class="st2" points="42.5,522.6 42.5,492.2 57.2,486.1 57.2,247.4 42.5,252.5 42.5,109.9 87.3,64.4 600.8,64.4 626.2,84.4 
		626.2,171.6 616.2,179.7 616.2,413.3 625.2,408.3 625.2,482.1 584.1,522.6 389.8,522.6 383.8,512.4 302.7,512.4 294.4,522.6 	"/>
	<line class="st3" x1="76.6" y1="385" x2="597.7" y2="385"/>
	<polyline class="st4" points="610.2,403.2 374.8,403.2 347.7,445.2 347.7,512.4 	"/>
	<polygon class="st5" points="347.7,502.2 318.1,502.2 325.3,497.2 347.7,497.2 	"/>
	<polygon class="st5" points="347.7,493.6 318.1,493.6 325.3,488.6 347.7,488.6 	"/>
	<polygon class="st5" points="347.7,485.1 318.1,485.1 325.3,480.1 347.7,480.1 	"/>
	<polygon class="st5" points="347.7,476.6 318.1,476.6 325.3,471.6 347.7,471.6 	"/>
	<g>
		<rect x="120.3" y="47" class="st5" width="3.3" height="5.7"/>
		<rect x="127.7" y="39.9" class="st5" width="3.3" height="12.8"/>
		<rect x="135.1" y="29.7" class="st5" width="3.3" height="23"/>
		<rect x="142.4" y="39.9" class="st5" width="3.3" height="12.8"/>
		<rect x="149.8" y="36.8" class="st5" width="3.3" height="15.9"/>
		<rect x="157.1" y="47" class="st5" width="3.3" height="5.7"/>
		<rect x="164.4" y="38.9" class="st5" width="3.3" height="13.8"/>
		<rect x="171.7" y="41.8" class="st5" width="3.3" height="10.8"/>
		<rect x="179.1" y="36.8" class="st5" width="3.3" height="15.9"/>
		<rect x="186.5" y="31.8" class="st5" width="3.3" height="20.9"/>
		<rect x="193.8" y="40.9" class="st5" width="3.3" height="11.8"/>
		<rect x="201.1" y="40.9" class="st5" width="3.3" height="11.8"/>
		<rect x="208.5" y="40.9" class="st5" width="3.3" height="11.8"/>
		<rect x="215.8" y="36.8" class="st5" width="3.3" height="15.9"/>
		<rect x="223.1" y="36.8" class="st5" width="3.3" height="15.9"/>
	</g>
	<path class="st6" d="M636.9,177.3V75.2l-26.3-21.9H78.4l-47.6,48.5l-0.3,0.3v162.2l16.8-6.2v6.7L30.5,271v8.5l16.8-6.2v6.7
		l-16.8,6.2v8.5l16.8-6.1v6.6l-16.8,6.2v8.5l16.8-6.1v6.7l-16.8,6.1v8.6l16.8-6.2v6.7l-16.8,6.1v8.6l16.8-6.2v6.7l-16.8,6.2v8.5
		l16.8-6.2v6.7l-16.8,6.2v8.5l16.8-6.2v6.7l-16.8,6.2v8.5l16.8-6.1v6.6l-16.8,6.2v8.6l16.8-6.2v6.7l-16.8,6.1v8.6l16.8-6.2v6.7
		l-16.8,6.1v8.6l16.8-6.2v6.7l-16.8,6.2v8.5l16.8-6.2v6.7l-16.8,6.2v8.5l16.8-6.2v6.7l-16.8,6.2v8.5l16.8-6.1v6.6l-16.8,6.2v50.9
		H589l47.9-47.9v-90l-8.9,3.3v-6.7l8.9-3.3v-8.6l-8.9,3.3V378l8.9-3.3v-8.6l-8.9,3.3v-6.7l8.9-3.3V351l-8.9,3.3v-6.6l8.9-3.3v-8.5
		l-8.9,3.3v-6.7l8.9-3.3v-8.5l-8.9,3.3v-6.7l8.9-3.3v-8.5l-8.9,3.3V302l8.9-3.3v-8.6l-8.9,3.3v-6.7l8.9-3.3V275l-8.9,3.3v-6.7
		l8.9-3.3v-8.6l-8.9,3.3v-6.6l8.9-3.3v-8.5l-8.9,3.3v-6.7l8.9-3.3v-8.5l-8.9,3.3v-6.7l8.9-3.3v-8.5l-8.9,3.3v-6.7l8.9-3.3v-8.6
		l-8.9,3.3v-6.7l8.9-3.3v-8.6l-8.9,3.3v-6.7L636.9,177.3z M626.2,171.6l-10,8.1v233.7l9-5v73.8l-41.1,40.5H389.8l-6-10.1h-81.2
		l-8.3,10.1H42.5v-30.3l14.7-6.1V247.4l-14.7,5V109.9l44.9-45.5h513.5l25.4,20V171.6z"/>
	<polygon class="st7" points="164.4,533.5 96.1,533.5 92.1,516.6 160.4,516.6 	"/>
</g>
</svg>
